<?xml version="1.0" encoding="utf-8"?>
<svg xmlns="http://www.w3.org/2000/svg" viewBox="0 0 48 48" fill="#333333"><path d="M 21.476562 2.9785156 A 1.50015 1.50015 0 0 0 20 4.5 L 20 5.0703125 C 15.302053 5.4780856 12.054102 7.7527114 10.068359 10.007812 C 7.877209 12.496187 7.0703125 15.046875 7.0703125 15.046875 A 1.50015 1.50015 0 0 0 8.5 17 L 20 17 L 20 23.5 A 1.50015 1.50015 0 1 0 23 23.5 L 23 17 L 34.5 17 A 1.50015 1.50015 0 0 0 35.929688 15.046875 C 35.929688 15.046875 35.122791 12.496186 32.931641 10.007812 C 30.945898 7.7527114 27.697947 5.4780856 23 5.0703125 L 23 4.5 A 1.50015 1.50015 0 0 0 21.476562 2.9785156 z M 21.326172 8.0097656 A 1.50015 1.50015 0 0 0 21.681641 8.0097656 C 26.19953 8.0630832 28.932677 10.008201 30.679688 11.992188 C 31.330013 12.730728 31.678996 13.371534 32.044922 14 L 21.746094 14 A 1.50015 1.50015 0 0 0 21.476562 13.978516 A 1.50015 1.50015 0 0 0 21.257812 14 L 10.955078 14 C 11.321004 13.371534 11.669986 12.730728 12.320312 11.992188 C 14.068367 10.007016 16.803439 8.0608421 21.326172 8.0097656 z M 38 22 A 3 3 0 0 0 38 28 A 3 3 0 0 0 38 22 z M 29.5 25 A 3.5 3.5 0 0 0 28.566406 25.130859 L 28.564453 25.126953 L 28.53125 25.138672 A 3.5 3.5 0 0 0 28.001953 25.339844 L 21 28 L 16.466797 25.355469 A 1.50015 1.50015 0 0 0 15.425781 25.001953 A 1.50015 1.50015 0 0 0 14.267578 25.646484 L 9.8691406 32 L 5.5 32 A 1.50015 1.50015 0 1 0 5.5 35 L 21.330078 35 C 21.350291 35 21.370421 34.99821 21.390625 34.998047 A 3.5 3.5 0 0 0 21.5 35 A 3.5 3.5 0 0 0 21.923828 34.970703 C 22.686343 34.910167 23.435788 34.739024 24.146484 34.451172 L 30.962891 31.689453 A 1.50015 1.50015 0 0 0 31.351562 31.464844 A 3.5 3.5 0 0 0 29.5 25 z M 15.511719 29.117188 L 18.011719 31.716797 A 3.5 3.5 0 0 0 18.039062 32 L 13.515625 32 L 15.511719 29.117188 z M 42.455078 29.992188 A 1.50015 1.50015 0 0 0 41.917969 30.117188 L 23.195312 38 L 9.7460938 38 A 1.50015 1.50015 0 0 0 9.4765625 37.978516 A 1.50015 1.50015 0 0 0 9.2578125 38 L 5.5 38 A 1.50015 1.50015 0 1 0 5.5 41 L 8 41 L 8 43.5 A 1.50015 1.50015 0 1 0 11 43.5 L 11 41 L 23.339844 41 A 1.50015 1.50015 0 0 0 23.619141 41 L 37 41 L 37 43.5 A 1.50015 1.50015 0 1 0 40 43.5 L 40 41 L 42.5 41 A 1.50015 1.50015 0 1 0 42.5 38 L 38.746094 38 A 1.50015 1.50015 0 0 0 38.476562 37.978516 A 1.50015 1.50015 0 0 0 38.257812 38 L 30.929688 38 L 43.082031 32.882812 A 1.50015 1.50015 0 0 0 42.455078 29.992188 z" fill="#333333"/></svg>
