<?xml version="1.0" encoding="utf-8"?>
<svg xmlns="http://www.w3.org/2000/svg" viewBox="0 0 48 48" fill="#333333"><path d="M 23.546875 1.9804688 A 1.50015 1.50015 0 0 0 22.089844 4.0117188 C 23.027482 6.5902236 23.205623 8.474721 22.738281 10.240234 C 22.342614 11.734977 21.394818 13.255519 19.820312 14.988281 L 18.857422 14.025391 C 17.971706 13.139675 16.741019 12.872434 15.626953 13.121094 C 14.512887 13.369753 13.515345 14.136207 13.089844 15.314453 L 3.0898438 42.990234 A 1.50015 1.50015 0 0 0 5.0097656 44.910156 L 32.6875 34.910156 L 32.6875 34.912109 C 35.044844 34.062508 35.745107 30.916737 33.974609 29.144531 A 1.50015 1.50015 0 0 0 33.974609 29.142578 L 33.001953 28.169922 C 34.738527 26.590338 36.262418 25.640497 37.759766 25.244141 C 39.525279 24.776799 41.409776 24.95494 43.988281 25.892578 A 1.50015 1.50015 0 1 0 45.011719 23.072266 C 43.550971 22.541085 42.167506 22.193879 40.837891 22.0625 C 39.508275 21.931121 38.232477 22.01492 36.990234 22.34375 C 34.83447 22.914393 32.878898 24.175955 30.865234 26.033203 L 26.582031 21.75 C 27.020285 21.579726 27.468549 21.549413 28.121094 21.496094 C 29.275987 21.401724 31.069446 21.172122 32.619141 19.623047 C 34.169546 18.072641 34.397438 16.280366 34.492188 15.125 C 34.586937 13.969634 34.547568 13.452048 35.498047 12.501953 C 36.448592 11.551788 36.967556 11.590978 38.123047 11.496094 C 39.278538 11.401214 41.071259 11.171548 42.621094 9.6210938 A 1.50015 1.50015 0 0 0 41.529297 7.046875 A 1.50015 1.50015 0 0 0 40.5 7.5 C 39.549835 8.4505453 39.032212 8.4109939 37.876953 8.5058594 C 36.721694 8.6007244 34.927408 8.831025 33.376953 10.380859 C 31.826428 11.930765 31.598657 13.723522 31.503906 14.878906 C 31.409156 16.03429 31.448636 16.551359 30.498047 17.501953 C 29.548742 18.450878 29.03206 18.411476 27.876953 18.505859 C 26.968667 18.580072 25.665205 18.747152 24.396484 19.564453 L 21.957031 17.125 C 23.809151 15.114642 25.066961 13.162184 25.636719 11.009766 C 26.294377 8.525279 25.972518 5.9097764 24.910156 2.9882812 A 1.50015 1.50015 0 0 0 23.546875 1.9804688 z M 31 4 C 30.67725 4 30.353922 4.1226406 30.107422 4.3691406 L 29.369141 5.1074219 C 28.876141 5.6004219 28.876141 6.3995781 29.369141 6.8925781 L 30.107422 7.6308594 C 30.600422 8.1228594 31.399578 8.1228594 31.892578 7.6308594 L 32.630859 6.8925781 C 33.123859 6.3995781 33.123859 5.6004219 32.630859 5.1074219 L 31.892578 4.3691406 C 31.646078 4.1226406 31.32275 4 31 4 z M 15 7 C 14.67725 7 14.353922 7.1226406 14.107422 7.3691406 L 13.369141 8.1074219 C 12.876141 8.6004219 12.876141 9.3995781 13.369141 9.8925781 L 14.107422 10.630859 C 14.600422 11.122859 15.399578 11.122859 15.892578 10.630859 L 16.630859 9.8925781 C 17.123859 9.3995781 17.123859 8.6004219 16.630859 8.1074219 L 15.892578 7.3691406 C 15.646078 7.1226406 15.32275 7 15 7 z M 9 11.5 C 8.67725 11.5 8.3539219 11.622641 8.1074219 11.869141 L 7.3691406 12.607422 C 6.8761406 13.100422 6.8761406 13.899578 7.3691406 14.392578 L 8.1074219 15.130859 C 8.6004219 15.622859 9.3995781 15.622859 9.8925781 15.130859 L 10.630859 14.392578 C 11.123859 13.899578 11.123859 13.100422 10.630859 12.607422 L 9.8925781 11.869141 C 9.6460781 11.622641 9.32275 11.5 9 11.5 z M 16.265625 15.976562 C 16.416059 15.942972 16.584091 15.998152 16.734375 16.148438 A 1.50015 1.50015 0 0 0 16.736328 16.148438 L 31.853516 31.265625 C 32.153063 31.567147 32.069847 31.943755 31.669922 32.087891 A 1.50015 1.50015 0 0 0 31.667969 32.089844 L 6.9960938 41.003906 L 15.910156 16.332031 C 15.982656 16.131278 16.115191 16.010154 16.265625 15.976562 z M 40 16 C 39.67725 16 39.353922 16.122641 39.107422 16.369141 L 38.369141 17.107422 C 37.876141 17.600422 37.876141 18.399578 38.369141 18.892578 L 39.107422 19.630859 C 39.600422 20.122859 40.399578 20.122859 40.892578 19.630859 L 41.630859 18.892578 C 42.123859 18.399578 42.123859 17.600422 41.630859 17.107422 L 40.892578 16.369141 C 40.646078 16.122641 40.32275 16 40 16 z M 40 29 C 39.67725 29 39.353922 29.122641 39.107422 29.369141 L 38.369141 30.107422 C 37.876141 30.600422 37.876141 31.399578 38.369141 31.892578 L 39.107422 32.630859 C 39.600422 33.122859 40.399578 33.122859 40.892578 32.630859 L 41.630859 31.892578 C 42.123859 31.399578 42.123859 30.600422 41.630859 30.107422 L 40.892578 29.369141 C 40.646078 29.122641 40.32275 29 40 29 z M 37 36 C 36.67725 36 36.353922 36.122641 36.107422 36.369141 L 35.369141 37.107422 C 34.876141 37.600422 34.876141 38.399578 35.369141 38.892578 L 36.107422 39.630859 C 36.600422 40.122859 37.399578 40.122859 37.892578 39.630859 L 38.630859 38.892578 C 39.123859 38.399578 39.123859 37.600422 38.630859 37.107422 L 37.892578 36.369141 C 37.646078 36.122641 37.32275 36 37 36 z" fill="#333333"/></svg>
